<svg version="1.1" xmlns="http://www.w3.org/2000/svg" xmlns:xlink="http://www.w3.org/1999/xlink" width="68.71223" height="194.24682" viewBox="0,0,68.71223,194.24682"><defs><linearGradient x1="241.78474" y1="84.5035" x2="243.05269" y2="111.89283" gradientUnits="userSpaceOnUse" id="color-1"><stop offset="0" stop-color="#f8df00"/><stop offset="1" stop-color="#e6af27"/></linearGradient></defs><g transform="translate(-205.64314,-82.8445)"><g data-paper-data="{&quot;isPaintingLayer&quot;:true}" fill-rule="nonzero" stroke-linejoin="miter" stroke-miterlimit="10" stroke-dasharray="" stroke-dashoffset="0" style="mix-blend-mode: normal"><path d="M228.6783,207.69883v-63.5h18.06024v63.5z" fill="#49c5ff" stroke="#000000" stroke-width="2" stroke-linecap="butt"/><path d="M243.63956,204.10305l-11.80072,-0.09857v-4.53428c0,0 1.6984,-0.45921 2.21537,-1.13262c0.51721,-0.67373 0.88717,-2.9088 0.88717,-2.9088l5.78956,0.06571c0,0 0.60206,1.74708 1.08736,2.29606c0.51065,0.57765 1.73817,1.08822 1.73817,1.08822z" fill="#00abff" stroke="#000000" stroke-width="2" stroke-linecap="round"/><path d="M234.72584,147.83558v15.45422" fill="none" stroke="#ffffff" stroke-width="2" stroke-linecap="round"/><path d="M240.957,147.08558v15.45422" fill="none" stroke="#ffffff" stroke-width="2" stroke-linecap="round"/><path d="M234.81177,163.7467l-0.04285,2.45245" fill="none" stroke="#ffffff" stroke-width="3" stroke-linecap="round"/><path d="M241.00007,164.50518l0.04285,-2.45245" fill="none" stroke="#ffffff" stroke-width="3" stroke-linecap="round"/><path d="M211.5701,118.81698c0,-15.60704 12.652,-28.25904 28.25904,-28.25904c15.60704,0 28.25905,12.652 28.25905,28.25904c0,15.60704 -12.65201,28.25905 -28.25904,28.25905c-15.60704,0 -28.25904,-12.65201 -28.25904,-28.25905z" fill="#faf0c9" stroke="#000000" stroke-width="2" stroke-linecap="butt"/><path d="M236.76312,106.0293l-0.30884,13.55978" fill="none" stroke="#000000" stroke-width="2" stroke-linecap="round"/><path d="M242.38081,119.95645l0.30884,-13.55978" fill="none" stroke="#000000" stroke-width="2" stroke-linecap="round"/><path d="M267.19631,105.46697c-0.05512,0.56525 -5.6644,-2.65091 -10.38715,-2.53229c-2.284,0.05737 3.38344,2.81467 1.00642,4.13924c-1.59671,0.88976 -6.24844,-5.86995 -8.38463,-4.78892c-1.1703,0.59224 0.90744,3.1487 -0.27844,3.99541c-1.62582,1.16083 -5.57468,-6.98665 -11.39903,-6.42564c-2.49602,1.06693 -4.08658,3.4821 -6.43625,6.00064c-0.61834,0.66278 -3.58728,-1.23895 -3.85359,-1.23939c-0.65596,-0.00106 -4.95556,3.90547 -5.3698,3.9048c-1.85727,-0.00299 0.89623,-3.63147 -1.09304,-3.50553c-1.98927,0.12594 -9.47257,4.29765 -11.90687,4.23983c-1.19774,-0.02845 -2.14382,-7.38677 3.49021,-13.58164c1.40066,-1.54009 -3.20602,0.96413 -3.20602,0.96413c0,0 -5.18096,3.4315 -1.28128,-1.70762c4.25549,-5.60804 7.39469,-10.2627 16.81888,-11.08549c15.15164,-1.67276 17.22928,3.9772 17.22928,3.9772c0,0 6.52794,-2.75289 11.48672,-3.12003c10.10709,0.15082 10.88196,1.19548 15.84361,5.70472c1.82292,1.65671 -7.13885,-1.15778 -5.36037,0.27848c7.21329,5.82523 9.08166,8.54132 9.24041,10.55221c0.09329,1.18165 -4.22462,-3.60521 -6.34019,-2.24617c-2.11557,1.35904 0.25222,5.747 0.18112,6.47605z" fill="url(#color-1)" stroke="#000000" stroke-width="2" stroke-linecap="butt"/><path d="M247.62602,124.82343c0,0 -0.03434,4.15221 -1.6654,6.06074c-2.07216,2.42467 -5.3346,3.68926 -5.3346,3.68926" fill="none" stroke="#000000" stroke-width="2" stroke-linecap="round"/><path d="M230.37602,275.82343l0.5,-67.75" fill="none" stroke="#000000" stroke-width="2" stroke-linecap="round"/><path d="M245.87602,274.82343l-3,-66.75" fill="none" stroke="#000000" stroke-width="2" stroke-linecap="round"/><path d="M260.25334,274.77607c0,0.78043 -13.37732,1.34567 -13.37732,0.56524c0,-0.78043 4.16363,-1.25773 7.81914,-1.78992c3.88246,-0.56524 5.55818,0.44425 5.55818,1.22468z" fill="none" stroke="#000000" stroke-width="2" stroke-linecap="butt"/><path d="M222.18419,274.30139c3.65551,0.5322 7.81914,1.0095 7.81914,1.78993c0,0.78043 -13.37732,0.21519 -13.37732,-0.56524c0,-0.78043 1.67572,-1.78993 5.55818,-1.22469z" data-paper-data="{&quot;index&quot;:null}" fill="none" stroke="#000000" stroke-width="2" stroke-linecap="butt"/><path d="M224.62602,189.44923l2.75,-9l-12.25,-9.25l13,-21" fill="none" stroke="#000000" stroke-width="2" stroke-linecap="round"/><path d="M246.62602,150.94923l3,48.25" fill="none" stroke="#000000" stroke-width="2" stroke-linecap="round"/></g></g></svg>